<svg width="24" height="24" viewBox="0 0 24 24" fill="none" xmlns="http://www.w3.org/2000/svg">
  <path d="M18 16H6.5C4.5 16 3 14.5 3 12.5C3 10.5 4.5 9 6.5 9C6.7 9 6.9 9 7.1 9.1C7.8 7.3 9.6 6 11.7 6C14 6 16 7.5 16.5 9.5C17.6 9.7 18.5 10.6 18.5 11.8C18.5 13 17.6 14 16.5 14H18C19.1 14 20 14.9 20 16C20 17.1 19.1 18 18 18Z" fill="#E0F7FA" stroke="#81D4FA" stroke-width="1.5"/>
  <path d="M12 20L12 16M9 18L15 18M15 20L9 16M9 20L15 16" stroke="#90CAF9" stroke-width="1.5" stroke-linecap="round"/>
</svg>